999
"DXF R12 Output" (www.mydxf.blogspot.com)
 0 
SECTION
 2 
HEADER
 9 
$ACADVER
 1 
AC1009
 9 
$EXTMIN
 10 
 0 
 20 
 0 
 9 
$EXTMAX
 10 
 8.5 
 20 
 11 
 0 
ENDSEC
 0 
SECTION
 2 
ENTITIES
0
LINE
8
Layer 1
10
0.846666
20
317.647000
11
-0.846666
21
315.953000
0
LINE
8
Layer 1
10
0.000000
20
318.211000
11
0.000000
21
315.389000
0
LINE
8
Layer 1
10
2.257780
20
315.671000
11
1.128890
21
314.542110
0
LINE
8
Layer 1
10
1.693330
20
316.236000
11
0.564440
21
315.107110
0
LINE
8
Layer 1
10
1.128890
20
316.800000
11
0.000000
21
315.671110
0
LINE
8
0
10
460.586000
20
0.000249
11
460.586000
21
101.600000
0
LINE
8
0
10
460.586000
20
101.600000
11
0.000000
21
101.600000
0
LINE
8
0
10
0.000000
20
101.600000
11
0.000000
21
0.000249
0
LINE
8
0
10
162.560000
20
54.186900
11
162.449810
21
55.988268
0
LINE
8
0
10
162.449810
20
55.988268
11
162.107076
21
57.736119
0
LINE
8
0
10
162.107076
20
57.736119
11
161.543240
21
59.410465
0
LINE
8
0
10
161.543240
20
59.410465
11
160.769747
21
60.991317
0
LINE
8
0
10
160.769747
20
60.991317
11
159.798041
21
62.458687
0
LINE
8
0
10
159.798041
20
62.458687
11
158.639567
21
63.792584
0
LINE
8
0
10
158.639567
20
63.792584
11
157.305768
21
64.973022
0
LINE
8
0
10
157.305768
20
64.973022
11
155.808089
21
65.980010
0
LINE
8
0
10
155.808089
20
65.980010
11
154.190057
21
66.779411
0
LINE
8
0
10
154.190057
20
66.779411
11
152.502926
21
67.350411
0
LINE
8
0
10
152.502926
20
67.350411
11
150.769730
21
67.693011
0
LINE
8
0
10
150.769730
20
67.693011
11
149.013500
21
67.807211
0
LINE
8
0
10
149.013500
20
67.807211
11
147.257270
21
67.693011
0
LINE
8
0
10
147.257270
20
67.693011
11
145.524074
21
67.350411
0
LINE
8
0
10
145.524074
20
67.350411
11
143.836943
21
66.779411
0
LINE
8
0
10
143.836943
20
66.779411
11
142.218911
21
65.980010
0
LINE
8
0
10
142.218911
20
65.980010
11
140.721232
21
64.973022
0
LINE
8
0
10
140.721232
20
64.973022
11
139.387433
21
63.792584
0
LINE
8
0
10
139.387433
20
63.792584
11
138.228959
21
62.458687
0
LINE
8
0
10
138.228959
20
62.458687
11
137.257253
21
60.991317
0
LINE
8
0
10
137.257253
20
60.991317
11
136.483760
21
59.410465
0
LINE
8
0
10
136.483760
20
59.410465
11
135.919924
21
57.736119
0
LINE
8
0
10
135.919924
20
57.736119
11
135.577190
21
55.988268
0
LINE
8
0
10
135.577190
20
55.988268
11
135.467000
21
54.186900
0
LINE
8
0
10
135.467000
20
54.186900
11
135.577190
21
52.385532
0
LINE
8
0
10
135.577190
20
52.385532
11
135.919924
21
50.637681
0
LINE
8
0
10
135.919924
20
50.637681
11
136.483760
21
48.963335
0
LINE
8
0
10
136.483760
20
48.963335
11
137.257253
21
47.382483
0
LINE
8
0
10
137.257253
20
47.382483
11
138.228959
21
45.915113
0
LINE
8
0
10
138.228959
20
45.915113
11
139.387433
21
44.581216
0
LINE
8
0
10
139.387433
20
44.581216
11
140.721232
21
43.400778
0
LINE
8
0
10
140.721232
20
43.400778
11
142.218911
21
42.393790
0
LINE
8
0
10
142.218911
20
42.393790
11
143.836943
21
41.594389
0
LINE
8
0
10
143.836943
20
41.594389
11
145.524074
21
41.023389
0
LINE
8
0
10
145.524074
20
41.023389
11
147.257270
21
40.680789
0
LINE
8
0
10
147.257270
20
40.680789
11
149.013500
21
40.566589
0
LINE
8
0
10
149.013500
20
40.566589
11
150.769730
21
40.680789
0
LINE
8
0
10
150.769730
20
40.680789
11
152.502926
21
41.023389
0
LINE
8
0
10
152.502926
20
41.023389
11
154.190057
21
41.594389
0
LINE
8
0
10
154.190057
20
41.594389
11
155.808089
21
42.393790
0
LINE
8
0
10
155.808089
20
42.393790
11
157.305768
21
43.400778
0
LINE
8
0
10
157.305768
20
43.400778
11
158.639567
21
44.581216
0
LINE
8
0
10
158.639567
20
44.581216
11
159.798041
21
45.915113
0
LINE
8
0
10
159.798041
20
45.915113
11
160.769747
21
47.382483
0
LINE
8
0
10
160.769747
20
47.382483
11
161.543240
21
48.963335
0
LINE
8
0
10
161.543240
20
48.963335
11
162.107076
21
50.637681
0
LINE
8
0
10
162.107076
20
50.637681
11
162.449810
21
52.385532
0
LINE
8
0
10
162.449810
20
52.385532
11
162.560000
21
54.186900
0
LINE
8
0
10
162.560000
20
54.186900
11
162.560000
21
54.186900
0
LINE
8
0
10
108.373000
20
54.186900
11
108.261608
21
55.987335
0
LINE
8
0
10
108.261608
20
55.987335
11
107.917924
21
57.734161
0
LINE
8
0
10
107.917924
20
57.734161
11
107.353385
21
59.407421
0
LINE
8
0
10
107.353385
20
59.407421
11
106.579428
21
60.987160
0
LINE
8
0
10
106.579428
20
60.987160
11
105.607493
21
62.453423
0
LINE
8
0
10
105.607493
20
62.453423
11
104.449017
21
63.786253
0
LINE
8
0
10
104.449017
20
63.786253
11
103.115438
21
64.965696
0
LINE
8
0
10
103.115438
20
64.965696
11
101.618195
21
65.971796
0
LINE
8
0
10
101.618195
20
65.971796
11
100.000762
21
66.770476
0
LINE
8
0
10
100.000762
20
66.770476
11
98.314327
21
67.340961
0
LINE
8
0
10
98.314327
20
67.340961
11
96.581889
21
67.683252
0
LINE
8
0
10
96.581889
20
67.683252
11
94.826450
21
67.797349
0
LINE
8
0
10
94.826450
20
67.797349
11
93.071011
21
67.683252
0
LINE
8
0
10
93.071011
20
67.683252
11
91.338573
21
67.340961
0
LINE
8
0
10
91.338573
20
67.340961
11
89.652138
21
66.770476
0
LINE
8
0
10
89.652138
20
66.770476
11
88.034705
21
65.971796
0
LINE
8
0
10
88.034705
20
65.971796
11
86.537462
21
64.965696
0
LINE
8
0
10
86.537462
20
64.965696
11
85.203883
21
63.786253
0
LINE
8
0
10
85.203883
20
63.786253
11
84.045407
21
62.453423
0
LINE
8
0
10
84.045407
20
62.453423
11
83.073472
21
60.987160
0
LINE
8
0
10
83.073472
20
60.987160
11
82.299515
21
59.407421
0
LINE
8
0
10
82.299515
20
59.407421
11
81.734976
21
57.734161
0
LINE
8
0
10
81.734976
20
57.734161
11
81.391292
21
55.987335
0
LINE
8
0
10
81.391292
20
55.987335
11
81.279900
21
54.186900
0
LINE
8
0
10
81.279900
20
54.186900
11
81.391292
21
52.386465
0
LINE
8
0
10
81.391292
20
52.386465
11
81.734976
21
50.639639
0
LINE
8
0
10
81.734976
20
50.639639
11
82.299515
21
48.966379
0
LINE
8
0
10
82.299515
20
48.966379
11
83.073472
21
47.386640
0
LINE
8
0
10
83.073472
20
47.386640
11
84.045407
21
45.920377
0
LINE
8
0
10
84.045407
20
45.920377
11
85.203883
21
44.587547
0
LINE
8
0
10
85.203883
20
44.587547
11
86.537462
21
43.408104
0
LINE
8
0
10
86.537462
20
43.408104
11
88.034705
21
42.402004
0
LINE
8
0
10
88.034705
20
42.402004
11
89.652138
21
41.603324
0
LINE
8
0
10
89.652138
20
41.603324
11
91.338573
21
41.032839
0
LINE
8
0
10
91.338573
20
41.032839
11
93.071011
21
40.690548
0
LINE
8
0
10
93.071011
20
40.690548
11
94.826450
21
40.576451
0
LINE
8
0
10
94.826450
20
40.576451
11
96.581889
21
40.690548
0
LINE
8
0
10
96.581889
20
40.690548
11
98.314327
21
41.032839
0
LINE
8
0
10
98.314327
20
41.032839
11
100.000762
21
41.603324
0
LINE
8
0
10
100.000762
20
41.603324
11
101.618195
21
42.402004
0
LINE
8
0
10
101.618195
20
42.402004
11
103.115438
21
43.408104
0
LINE
8
0
10
103.115438
20
43.408104
11
104.449017
21
44.587547
0
LINE
8
0
10
104.449017
20
44.587547
11
105.607493
21
45.920377
0
LINE
8
0
10
105.607493
20
45.920377
11
106.579428
21
47.386640
0
LINE
8
0
10
106.579428
20
47.386640
11
107.353385
21
48.966379
0
LINE
8
0
10
107.353385
20
48.966379
11
107.917924
21
50.639639
0
LINE
8
0
10
107.917924
20
50.639639
11
108.261608
21
52.386465
0
LINE
8
0
10
108.261608
20
52.386465
11
108.373000
21
54.186900
0
LINE
8
0
10
108.373000
20
54.186900
11
108.373000
21
54.186900
0
LINE
8
0
10
206.451000
20
54.186900
11
206.346331
21
55.042352
0
LINE
8
0
10
206.346331
20
55.042352
11
206.027565
21
55.827697
0
LINE
8
0
10
206.027565
20
55.827697
11
205.516767
21
56.504056
0
LINE
8
0
10
205.516767
20
56.504056
11
204.835999
21
57.032554
0
LINE
8
0
10
204.835999
20
57.032554
11
204.040350
21
57.363760
0
LINE
8
0
10
204.040350
20
57.363760
11
203.200000
21
57.474162
0
LINE
8
0
10
203.200000
20
57.474162
11
202.359650
21
57.363760
0
LINE
8
0
10
202.359650
20
57.363760
11
201.564001
21
57.032554
0
LINE
8
0
10
201.564001
20
57.032554
11
200.883233
21
56.504056
0
LINE
8
0
10
200.883233
20
56.504056
11
200.372435
21
55.827697
0
LINE
8
0
10
200.372435
20
55.827697
11
200.053669
21
55.042352
0
LINE
8
0
10
200.053669
20
55.042352
11
199.949000
21
54.186900
0
LINE
8
0
10
199.949000
20
54.186900
11
200.053669
21
53.331448
0
LINE
8
0
10
200.053669
20
53.331448
11
200.372435
21
52.546103
0
LINE
8
0
10
200.372435
20
52.546103
11
200.883233
21
51.869744
0
LINE
8
0
10
200.883233
20
51.869744
11
201.564001
21
51.341246
0
LINE
8
0
10
201.564001
20
51.341246
11
202.359650
21
51.010040
0
LINE
8
0
10
202.359650
20
51.010040
11
203.200000
21
50.899638
0
LINE
8
0
10
203.200000
20
50.899638
11
204.040350
21
51.010040
0
LINE
8
0
10
204.040350
20
51.010040
11
204.835999
21
51.341246
0
LINE
8
0
10
204.835999
20
51.341246
11
205.516767
21
51.869744
0
LINE
8
0
10
205.516767
20
51.869744
11
206.027565
21
52.546103
0
LINE
8
0
10
206.027565
20
52.546103
11
206.346331
21
53.331448
0
LINE
8
0
10
206.346331
20
53.331448
11
206.451000
21
54.186900
0
LINE
8
0
10
206.451000
20
54.186900
11
206.451000
21
54.186900
0
LINE
8
0
10
54.186600
20
54.186900
11
54.071931
21
55.984784
0
LINE
8
0
10
54.071931
20
55.984784
11
53.725658
21
57.728805
0
LINE
8
0
10
53.725658
20
57.728805
11
53.159203
21
59.399097
0
LINE
8
0
10
53.159203
20
59.399097
11
52.383986
21
60.975795
0
LINE
8
0
10
52.383986
20
60.975795
11
51.411428
21
62.439034
0
LINE
8
0
10
51.411428
20
62.439034
11
50.252951
21
63.768951
0
LINE
8
0
10
50.252951
20
63.768951
11
48.919975
21
64.945678
0
LINE
8
0
10
48.919975
20
64.945678
11
47.423922
21
65.949353
0
LINE
8
0
10
47.423922
20
65.949353
11
45.808128
21
66.746064
0
LINE
8
0
10
45.808128
20
66.746064
11
44.123592
21
67.315143
0
LINE
8
0
10
44.123592
20
67.315143
11
42.393228
21
67.656590
0
LINE
8
0
10
42.393228
20
67.656590
11
40.639950
21
67.770406
0
LINE
8
0
10
40.639950
20
67.770406
11
38.886672
21
67.656590
0
LINE
8
0
10
38.886672
20
67.656590
11
37.156308
21
67.315143
0
LINE
8
0
10
37.156308
20
67.315143
11
35.471772
21
66.746064
0
LINE
8
0
10
35.471772
20
66.746064
11
33.855978
21
65.949353
0
LINE
8
0
10
33.855978
20
65.949353
11
32.359925
21
64.945678
0
LINE
8
0
10
32.359925
20
64.945678
11
31.026949
21
63.768951
0
LINE
8
0
10
31.026949
20
63.768951
11
29.868472
21
62.439034
0
LINE
8
0
10
29.868472
20
62.439034
11
28.895914
21
60.975795
0
LINE
8
0
10
28.895914
20
60.975795
11
28.120697
21
59.399097
0
LINE
8
0
10
28.120697
20
59.399097
11
27.554242
21
57.728805
0
LINE
8
0
10
27.554242
20
57.728805
11
27.207969
21
55.984784
0
LINE
8
0
10
27.207969
20
55.984784
11
27.093300
21
54.186900
0
LINE
8
0
10
27.093300
20
54.186900
11
27.207969
21
52.389016
0
LINE
8
0
10
27.207969
20
52.389016
11
27.554242
21
50.644995
0
LINE
8
0
10
27.554242
20
50.644995
11
28.120697
21
48.974703
0
LINE
8
0
10
28.120697
20
48.974703
11
28.895914
21
47.398005
0
LINE
8
0
10
28.895914
20
47.398005
11
29.868472
21
45.934766
0
LINE
8
0
10
29.868472
20
45.934766
11
31.026949
21
44.604849
0
LINE
8
0
10
31.026949
20
44.604849
11
32.359925
21
43.428122
0
LINE
8
0
10
32.359925
20
43.428122
11
33.855978
21
42.424447
0
LINE
8
0
10
33.855978
20
42.424447
11
35.471772
21
41.627736
0
LINE
8
0
10
35.471772
20
41.627736
11
37.156308
21
41.058657
0
LINE
8
0
10
37.156308
20
41.058657
11
38.886672
21
40.717210
0
LINE
8
0
10
38.886672
20
40.717210
11
40.639950
21
40.603394
0
LINE
8
0
10
40.639950
20
40.603394
11
42.393228
21
40.717210
0
LINE
8
0
10
42.393228
20
40.717210
11
44.123592
21
41.058657
0
LINE
8
0
10
44.123592
20
41.058657
11
45.808128
21
41.627736
0
LINE
8
0
10
45.808128
20
41.627736
11
47.423922
21
42.424447
0
LINE
8
0
10
47.423922
20
42.424447
11
48.919975
21
43.428122
0
LINE
8
0
10
48.919975
20
43.428122
11
50.252951
21
44.604849
0
LINE
8
0
10
50.252951
20
44.604849
11
51.411428
21
45.934766
0
LINE
8
0
10
51.411428
20
45.934766
11
52.383986
21
47.398005
0
LINE
8
0
10
52.383986
20
47.398005
11
53.159203
21
48.974703
0
LINE
8
0
10
53.159203
20
48.974703
11
53.725658
21
50.644995
0
LINE
8
0
10
53.725658
20
50.644995
11
54.071931
21
52.389016
0
LINE
8
0
10
54.071931
20
52.389016
11
54.186600
21
54.186900
0
LINE
8
0
10
54.186600
20
54.186900
11
54.186600
21
54.186900
0
LINE
8
0
10
0.000000
20
0.000245
11
460.586000
21
0.000245
0
LINE
8
0
10
0.000000
20
0.000245
11
0.000000
21
101.600245
0
LINE
8
0
10
0.000000
20
101.600000
11
0.000000
21
0.000245
 0 
ENDSEC
 0 
EOF